# xmcd CD database file
# Copyright (C) 1995-1998 Ti Kan
#
# Track frame offsets:
#	182
#	21042
#	43217
#	58430
#	78247
#	102747
#	128457
#	147682
#	167162
#	185220
#	205207
#	234782
#
# Disc length: 3175 seconds
#
# Revision: 34495900
# Submitted via:  xmcd 1.4
#
DISCID=b00c650c
DTITLE=Bush / Sixteen Stone
TTITLE0=Everything Zen
TTITLE1=Swim
TTITLE2=Bomb
TTITLE3=Little Things
TTITLE4=Comedown
TTITLE5=Body
TTITLE6=Machinehead
TTITLE7=Testosterone
TTITLE8=Monkey
TTITLE9=Glycerine
TTITLE10=Alien
TTITLE11=X-girlfriend
EXTD=Bush:\n    Gavin Rossdale - Guitar and Vocals\n    Dave Parsons - Bass\
EXTD=n    Nigel Goodridge - Drums\n\nProduced and mixed by Clive Langer and 
EXTD=Alan Winstanley\nand Bush.\n\nAssistant Engineer - Danton Supple\n\nTra
EXTD=cks 1 and 4 mixed by David Holman and Paul Palmer.\n\nAdditional Musici
EXTD=ans:\n    Vinces Bundza - Harmonica\n    Gavin Wright - Violin/Viola\n 
EXTD=   Caroline Dale - Cello\n    Jasmine Lewis - Vocals\n    Winston - Voc
EXTD=als\n\nRecorded at Westside Studios, London, England.\nMastered: Robert
EXTD= Vosgien, CMS Digital.\n\nAll songs written by G. Rossdale.\n(C) Mad Do
EXTD=g Winston Music/PRS (pending)\nYEAR: 2000  ID3G:  17
EXTT0=violence\n
EXTT1=
EXTT2=
EXTT3=
EXTT4=
EXTT5=
EXTT6=
EXTT7=
EXTT8=
EXTT9=
EXTT10=
EXTT11=
PLAYORDER=
